Coordinates
version=1
nRows=8
nColumns=33
inDegrees=yes

Units are S.I. units (second, meters, Newtons, ...)
Angles are in degrees.

endheader
time	ground_thorax_rot_x	ground_thorax_rot_y	ground_thorax_rot_z	ground_thorax_tx	ground_thorax_ty	ground_thorax_tz	clav_prot_r	clav_elev_r	scapula_abduction_r	scapula_elevation_r	scapula_upward_rot_r	scapula_winging_r	shoulder_elv_r	plane_of_elev_r	axial_rot_r	elbow_flexion_r	pro_sup_r	wrist_flex_r	wrist_dev_r	clav_prot_l	clav_elev_l	scapula_abduction_l	scapula_elevation_l	scapula_upward_rot_l	scapula_winging_l	shoulder_elv_l	plane_of_elev_l	axial_rot_l	elbow_flexion_l	pro_sup_l	wrist_flex_l	wrist_dev_l
      5.19000000	    -37.17891405	     -7.01643802	     14.02746585	    -77.34445258	    768.61211518	      7.73588464	     -7.52777153	    -45.00000000	     45.00000000	    -45.00000000	     22.81619819	  -3348.97004661	  -2099.93693573	     20.31446812	   -179.99999979	   2525.38011560	    256.06363173	     14.43366124	      9.18507584	     18.77148666	     37.08528291	    -45.00000000	    -37.18954777	    -30.21997094	   1877.68224308	  -3533.93057869	     25.15451459	    -33.40278317	    726.76025215	   -337.10314521	      9.14636288	    -18.04933261
      5.20000000	    -37.29019976	     -6.94982207	     13.90739808	    -77.99737855	    768.61973290	      7.73733946	     -7.56870305	    -45.00000000	     45.00000000	    -45.00000000	     22.90048667	  -3349.15269703	  -2100.06070980	     20.43529314	   -179.99999979	   2525.34403128	    256.68424894	     14.78564263	      9.41667679	     18.59703397	     37.48256486	    -45.00000000	    -37.32756824	    -29.99345716	   1877.77617113	  -3534.11411961	     25.14215157	    -33.45648174	    726.78395351	   -336.17789211	      8.73855786	    -17.95327891
      5.21000000	    -37.35905010	     -6.92985040	     13.94387368	    -78.69024806	    768.65270824	      7.73885653	     -7.64042926	    -45.00000000	     45.00000000	    -45.00000000	     23.10238623	  -3349.13224579	  -2099.92067308	     20.30756909	   -179.99999979	   2525.31489302	    257.20285744	     14.52130077	      9.20701732	     18.74346479	     37.36633399	    -45.00000000	    -37.33444382	    -30.07575182	   1877.83161410	  -3533.97343423	     25.11572684	    -33.44025874	    726.92300727	   -335.42689418	      8.90100803	    -18.21491387
      5.22000000	    -37.40645053	     -6.93915678	     13.86105080	    -79.44644039	    768.71689132	      7.74241033	     -7.62219125	    -45.00000000	     45.00000000	    -45.00000000	     23.13535234	  -3349.36917590	  -2099.95687139	     20.47509632	   -179.99999979	   2525.31884629	    257.57644628	     14.97767377	      9.48849874	     18.62689837	     37.49945217	    -45.00000000	    -37.38925358	    -30.00250813	   1877.98405757	  -3534.05491643	     25.20635809	    -33.18878145	    726.99069179	   -334.88030887	      8.55760198	    -18.13048884
      5.23000000	    -37.43571814	     -6.96384275	     13.88918102	    -80.25021644	    768.81385297	      7.74863892	     -7.68360809	    -45.00000000	     45.00000000	    -45.00000000	     23.26685424	  -3349.25896303	  -2099.81922962	     20.33584228	   -179.99999979	   2525.24840810	    257.84685331	     14.59138267	      9.23098493	     18.68559360	     37.42645329	    -45.00000000	    -37.45073756	    -30.08955478	   1878.03030501	  -3533.86136983	     25.16354397	    -33.17186972	    727.18128064	   -334.38122871	      8.76855131	    -18.38056128
      5.24000000	    -37.66225681	     -6.94144808	     13.92988662	    -81.11239405	    768.94591722	      7.75511583	     -7.67590401	    -45.00000000	     45.00000000	    -45.00000000	     23.46488684	  -3349.74683258	  -2099.89495290	     20.49826207	   -179.99999979	   2525.32491483	    257.98811654	     15.15178791	      9.56634900	     18.75379079	     37.96499508	    -45.00000000	    -38.00137188	    -30.35833315	   1877.89066619	  -3534.01918049	     25.38526304	    -32.83480848	    727.09665935	   -334.03426699	      8.39291787	    -18.24168516
      5.25000000	    -37.71172829	     -6.96443226	     13.87955809	    -82.03174509	    769.11503612	      7.75680785	     -7.84064738	    -45.00000000	     45.00000000	    -45.00000000	     23.56543853	  -3349.59038865	  -2099.81252210	     20.28352044	   -179.99999979	   2525.26074435	    258.08191388	     14.65706079	      9.27778026	     18.94601459	     37.88759588	    -45.00000000	    -37.99641688	    -30.57192096	   1877.92968339	  -3533.78834755	     25.32377572	    -32.47057689	    727.39555068	   -333.75551532	      8.61551002	    -18.49611403
      5.26000000	    -37.76678928	     -6.92190549	     13.91280965	    -82.99945712	    769.32278973	      7.74639281	     -7.69703315	    -45.00000000	     45.00000000	    -45.00000000	     23.67484021	  -3349.91596658	  -2099.70957025	     20.60048567	   -179.99999979	   2525.40984295	    258.05701303	     15.37237424	      9.67017804	     18.79216036	     37.81278188	    -45.00000000	    -38.00219817	    -30.49948083	   1878.12886874	  -3533.86956570	     25.47166885	    -32.22097621	    727.31434746	   -333.50904375	      8.35787792	    -18.39917948
